# Blender v2.78 (sub 6) OBJ File: ''
# www.blender.org
o Plane_Plane.001
v -5.000000 0.000000 5.000000
v 5.000000 0.000000 5.000000
v -5.000000 0.000000 -5.000000
v 5.000000 0.000000 -5.000000
v -5.000000 0.000000 -4.000000
v -5.000000 0.000000 -3.000000
v -5.000000 0.000000 -2.000000
v -5.000000 0.000000 -1.000000
v -5.000000 0.000000 0.000000
v -5.000000 0.000000 1.000000
v -5.000000 0.000000 2.000000
v -5.000000 0.000000 3.000000
v -5.000000 0.000000 4.000000
v 5.000000 0.000000 4.000000
v 5.000000 0.000000 3.000000
v 5.000000 0.000000 2.000000
v 5.000000 0.000000 1.000000
v 5.000000 0.000000 0.000000
v 5.000000 0.000000 -1.000000
v 5.000000 0.000000 -2.000000
v 5.000000 0.000000 -3.000000
v 5.000000 0.000000 -4.000000
v -4.000000 0.000000 5.000000
v -3.000000 0.000000 5.000000
v -2.000000 0.000000 5.000000
v -1.000000 0.000000 5.000000
v 0.000000 0.000000 5.000000
v 1.000000 0.000000 5.000000
v 2.000000 0.000000 5.000000
v 3.000000 0.000000 5.000000
v 4.000000 0.000000 5.000000
v 4.000000 0.000000 -5.000000
v 3.000000 0.000000 -5.000000
v 2.000000 0.000000 -5.000000
v 1.000000 0.000000 -5.000000
v 0.000000 0.000000 -5.000000
v -1.000000 0.000000 -5.000000
v -2.000000 0.000000 -5.000000
v -3.000000 0.000000 -5.000000
v -4.000000 0.000000 -5.000000
v 4.000000 0.000000 4.000000
v 3.000000 0.000000 4.000000
v 2.000000 0.000000 4.000000
v 1.000000 0.000000 4.000000
v 0.000000 0.000000 4.000000
v -1.000000 0.000000 4.000000
v -2.000000 0.000000 4.000000
v -3.000000 0.000000 4.000000
v -4.000000 0.000000 4.000000
v 4.000000 0.000000 3.000000
v 3.000000 0.000000 3.000000
v 2.000000 0.000000 3.000000
v 1.000000 0.000000 3.000000
v 0.000000 0.000000 3.000000
v -1.000000 0.000000 3.000000
v -2.000000 0.000000 3.000000
v -3.000000 0.000000 3.000000
v -4.000000 0.000000 3.000000
v 4.000000 0.000000 2.000000
v 3.000000 0.000000 2.000000
v 2.000000 0.000000 2.000000
v 1.000000 0.000000 2.000000
v 0.000000 0.000000 2.000000
v -1.000000 0.000000 2.000000
v -2.000000 0.000000 2.000000
v -3.000000 0.000000 2.000000
v -4.000000 0.000000 2.000000
v 4.000000 0.000000 1.000000
v 3.000000 0.000000 1.000000
v 2.000000 0.000000 1.000000
v 1.000000 0.000000 1.000000
v 0.000000 0.000000 1.000000
v -1.000000 0.000000 1.000000
v -2.000000 0.000000 1.000000
v -3.000000 0.000000 1.000000
v -4.000000 0.000000 1.000000
v 4.000000 0.000000 0.000000
v 3.000000 0.000000 0.000000
v 2.000000 0.000000 0.000000
v 1.000000 0.000000 0.000000
v 0.000000 0.000000 0.000000
v -1.000000 0.000000 0.000000
v -2.000000 0.000000 0.000000
v -3.000000 0.000000 0.000000
v -4.000000 0.000000 0.000000
v 4.000000 0.000000 -1.000000
v 3.000000 0.000000 -1.000000
v 2.000000 0.000000 -1.000000
v 1.000000 0.000000 -1.000000
v 0.000000 0.000000 -1.000000
v -1.000000 0.000000 -1.000000
v -2.000000 0.000000 -1.000000
v -3.000000 0.000000 -1.000000
v -4.000000 0.000000 -1.000000
v 4.000000 0.000000 -2.000000
v 3.000000 0.000000 -2.000000
v 2.000000 0.000000 -2.000000
v 1.000000 0.000000 -2.000000
v 0.000000 0.000000 -2.000000
v -1.000000 0.000000 -2.000000
v -2.000000 0.000000 -2.000000
v -3.000000 0.000000 -2.000000
v -4.000000 0.000000 -2.000000
v 4.000000 0.000000 -3.000000
v 3.000000 0.000000 -3.000000
v 2.000000 0.000000 -3.000000
v 1.000000 0.000000 -3.000000
v 0.000000 0.000000 -3.000000
v -1.000000 0.000000 -3.000000
v -2.000000 0.000000 -3.000000
v -3.000000 0.000000 -3.000000
v -4.000000 0.000000 -3.000000
v 4.000000 0.000000 -4.000000
v 3.000000 0.000000 -4.000000
v 2.000000 0.000000 -4.000000
v 1.000000 0.000000 -4.000000
v 0.000000 0.000000 -4.000000
v -1.000000 0.000000 -4.000000
v -2.000000 0.000000 -4.000000
v -3.000000 0.000000 -4.000000
v -4.000000 0.000000 -4.000000
vt 0.999900 0.899920
vt 0.899920 0.999900
vt 0.899920 0.899920
vt 0.999900 0.000100
vt 0.899920 0.100080
vt 0.899920 0.000100
vt 0.999900 0.100080
vt 0.899920 0.200060
vt 0.999900 0.200060
vt 0.899920 0.300040
vt 0.999900 0.300040
vt 0.899920 0.400020
vt 0.999900 0.400020
vt 0.899920 0.500000
vt 0.999900 0.500000
vt 0.899920 0.599980
vt 0.999900 0.599980
vt 0.899920 0.699960
vt 0.999900 0.699960
vt 0.899920 0.799940
vt 0.999900 0.799940
vt 0.100080 0.799940
vt 0.000100 0.899920
vt 0.000100 0.799940
vt 0.200060 0.799940
vt 0.100080 0.899920
vt 0.300040 0.799940
vt 0.200060 0.899920
vt 0.400020 0.799940
vt 0.300040 0.899920
vt 0.500000 0.799940
vt 0.400020 0.899920
vt 0.599980 0.799940
vt 0.500000 0.899920
vt 0.699960 0.799940
vt 0.599980 0.899920
vt 0.799940 0.799940
vt 0.699960 0.899920
vt 0.799940 0.899920
vt 0.100080 0.699960
vt 0.000100 0.699960
vt 0.300040 0.699960
vt 0.200060 0.699960
vt 0.400020 0.699960
vt 0.500000 0.699960
vt 0.599980 0.699960
vt 0.699960 0.699960
vt 0.799940 0.699960
vt 0.100080 0.599980
vt 0.000100 0.599980
vt 0.200060 0.599980
vt 0.300040 0.599980
vt 0.400020 0.599980
vt 0.500000 0.599980
vt 0.599980 0.599980
vt 0.699960 0.599980
vt 0.799940 0.599980
vt 0.100080 0.500000
vt 0.000100 0.500000
vt 0.200060 0.500000
vt 0.300040 0.500000
vt 0.400020 0.500000
vt 0.500000 0.500000
vt 0.599980 0.500000
vt 0.699960 0.500000
vt 0.799940 0.500000
vt 0.100080 0.400020
vt 0.000100 0.400020
vt 0.200060 0.400020
vt 0.300040 0.400020
vt 0.400020 0.400020
vt 0.500000 0.400020
vt 0.599980 0.400020
vt 0.699960 0.400020
vt 0.799940 0.400020
vt 0.100080 0.300040
vt 0.000100 0.300040
vt 0.200060 0.300040
vt 0.300040 0.300040
vt 0.400020 0.300040
vt 0.500000 0.300040
vt 0.599980 0.300040
vt 0.699960 0.300040
vt 0.799940 0.300040
vt 0.000100 0.200060
vt 0.200060 0.200060
vt 0.100080 0.200060
vt 0.300040 0.200060
vt 0.400020 0.200060
vt 0.500000 0.200060
vt 0.599980 0.200060
vt 0.699960 0.200060
vt 0.799940 0.200060
vt 0.100080 0.100080
vt 0.000100 0.100081
vt 0.200060 0.100080
vt 0.300040 0.100080
vt 0.400020 0.100080
vt 0.500000 0.100080
vt 0.599980 0.100080
vt 0.699960 0.100080
vt 0.799940 0.100080
vt 0.100080 0.000101
vt 0.000100 0.000101
vt 0.200060 0.000100
vt 0.300040 0.000100
vt 0.400020 0.000100
vt 0.500000 0.000100
vt 0.599980 0.000100
vt 0.699960 0.000100
vt 0.799940 0.000100
vt 0.000100 0.999900
vt 0.100080 0.999900
vt 0.200060 0.999900
vt 0.300040 0.999900
vt 0.400020 0.999900
vt 0.500000 0.999900
vt 0.599980 0.999900
vt 0.699960 0.999900
vt 0.799940 0.999900
vt 0.999900 0.999900
vn 0.0000 1.0000 0.0000
s off
f 22/1/1 32/2/1 113/3/1
f 2/4/1 41/5/1 31/6/1
f 14/7/1 50/8/1 41/5/1
f 15/9/1 59/10/1 50/8/1
f 16/11/1 68/12/1 59/10/1
f 17/13/1 77/14/1 68/12/1
f 18/15/1 86/16/1 77/14/1
f 19/17/1 95/18/1 86/16/1
f 20/19/1 104/20/1 95/18/1
f 21/21/1 113/3/1 104/20/1
f 112/22/1 5/23/1 6/24/1
f 111/25/1 121/26/1 112/22/1
f 110/27/1 120/28/1 111/25/1
f 109/29/1 119/30/1 110/27/1
f 108/31/1 118/32/1 109/29/1
f 107/33/1 117/34/1 108/31/1
f 106/35/1 116/36/1 107/33/1
f 105/37/1 115/38/1 106/35/1
f 104/20/1 114/39/1 105/37/1
f 103/40/1 6/24/1 7/41/1
f 103/40/1 111/25/1 112/22/1
f 101/42/1 111/25/1 102/43/1
f 100/44/1 110/27/1 101/42/1
f 99/45/1 109/29/1 100/44/1
f 98/46/1 108/31/1 99/45/1
f 97/47/1 107/33/1 98/46/1
f 96/48/1 106/35/1 97/47/1
f 95/18/1 105/37/1 96/48/1
f 94/49/1 7/41/1 8/50/1
f 93/51/1 103/40/1 94/49/1
f 92/52/1 102/43/1 93/51/1
f 91/53/1 101/42/1 92/52/1
f 90/54/1 100/44/1 91/53/1
f 89/55/1 99/45/1 90/54/1
f 88/56/1 98/46/1 89/55/1
f 87/57/1 97/47/1 88/56/1
f 86/16/1 96/48/1 87/57/1
f 85/58/1 8/50/1 9/59/1
f 84/60/1 94/49/1 85/58/1
f 83/61/1 93/51/1 84/60/1
f 82/62/1 92/52/1 83/61/1
f 81/63/1 91/53/1 82/62/1
f 80/64/1 90/54/1 81/63/1
f 79/65/1 89/55/1 80/64/1
f 78/66/1 88/56/1 79/65/1
f 77/14/1 87/57/1 78/66/1
f 76/67/1 9/59/1 10/68/1
f 75/69/1 85/58/1 76/67/1
f 74/70/1 84/60/1 75/69/1
f 73/71/1 83/61/1 74/70/1
f 72/72/1 82/62/1 73/71/1
f 71/73/1 81/63/1 72/72/1
f 70/74/1 80/64/1 71/73/1
f 69/75/1 79/65/1 70/74/1
f 68/12/1 78/66/1 69/75/1
f 67/76/1 10/68/1 11/77/1
f 66/78/1 76/67/1 67/76/1
f 65/79/1 75/69/1 66/78/1
f 64/80/1 74/70/1 65/79/1
f 63/81/1 73/71/1 64/80/1
f 62/82/1 72/72/1 63/81/1
f 61/83/1 71/73/1 62/82/1
f 60/84/1 70/74/1 61/83/1
f 59/10/1 69/75/1 60/84/1
f 12/85/1 67/76/1 11/77/1
f 57/86/1 67/76/1 58/87/1
f 56/88/1 66/78/1 57/86/1
f 55/89/1 65/79/1 56/88/1
f 54/90/1 64/80/1 55/89/1
f 53/91/1 63/81/1 54/90/1
f 52/92/1 62/82/1 53/91/1
f 51/93/1 61/83/1 52/92/1
f 50/8/1 60/84/1 51/93/1
f 49/94/1 12/85/1 13/95/1
f 48/96/1 58/87/1 49/94/1
f 47/97/1 57/86/1 48/96/1
f 46/98/1 56/88/1 47/97/1
f 45/99/1 55/89/1 46/98/1
f 44/100/1 54/90/1 45/99/1
f 43/101/1 53/91/1 44/100/1
f 42/102/1 52/92/1 43/101/1
f 41/5/1 51/93/1 42/102/1
f 23/103/1 13/95/1 1/104/1
f 24/105/1 49/94/1 23/103/1
f 25/106/1 48/96/1 24/105/1
f 26/107/1 47/97/1 25/106/1
f 27/108/1 46/98/1 26/107/1
f 28/109/1 45/99/1 27/108/1
f 29/110/1 44/100/1 28/109/1
f 30/111/1 43/101/1 29/110/1
f 31/6/1 42/102/1 30/111/1
f 121/26/1 3/112/1 5/23/1
f 120/28/1 40/113/1 121/26/1
f 119/30/1 39/114/1 120/28/1
f 118/32/1 38/115/1 119/30/1
f 117/34/1 37/116/1 118/32/1
f 116/36/1 36/117/1 117/34/1
f 115/38/1 35/118/1 116/36/1
f 114/39/1 34/119/1 115/38/1
f 113/3/1 33/120/1 114/39/1
f 22/1/1 4/121/1 32/2/1
f 2/4/1 14/7/1 41/5/1
f 14/7/1 15/9/1 50/8/1
f 15/9/1 16/11/1 59/10/1
f 16/11/1 17/13/1 68/12/1
f 17/13/1 18/15/1 77/14/1
f 18/15/1 19/17/1 86/16/1
f 19/17/1 20/19/1 95/18/1
f 20/19/1 21/21/1 104/20/1
f 21/21/1 22/1/1 113/3/1
f 112/22/1 121/26/1 5/23/1
f 111/25/1 120/28/1 121/26/1
f 110/27/1 119/30/1 120/28/1
f 109/29/1 118/32/1 119/30/1
f 108/31/1 117/34/1 118/32/1
f 107/33/1 116/36/1 117/34/1
f 106/35/1 115/38/1 116/36/1
f 105/37/1 114/39/1 115/38/1
f 104/20/1 113/3/1 114/39/1
f 103/40/1 112/22/1 6/24/1
f 103/40/1 102/43/1 111/25/1
f 101/42/1 110/27/1 111/25/1
f 100/44/1 109/29/1 110/27/1
f 99/45/1 108/31/1 109/29/1
f 98/46/1 107/33/1 108/31/1
f 97/47/1 106/35/1 107/33/1
f 96/48/1 105/37/1 106/35/1
f 95/18/1 104/20/1 105/37/1
f 94/49/1 103/40/1 7/41/1
f 93/51/1 102/43/1 103/40/1
f 92/52/1 101/42/1 102/43/1
f 91/53/1 100/44/1 101/42/1
f 90/54/1 99/45/1 100/44/1
f 89/55/1 98/46/1 99/45/1
f 88/56/1 97/47/1 98/46/1
f 87/57/1 96/48/1 97/47/1
f 86/16/1 95/18/1 96/48/1
f 85/58/1 94/49/1 8/50/1
f 84/60/1 93/51/1 94/49/1
f 83/61/1 92/52/1 93/51/1
f 82/62/1 91/53/1 92/52/1
f 81/63/1 90/54/1 91/53/1
f 80/64/1 89/55/1 90/54/1
f 79/65/1 88/56/1 89/55/1
f 78/66/1 87/57/1 88/56/1
f 77/14/1 86/16/1 87/57/1
f 76/67/1 85/58/1 9/59/1
f 75/69/1 84/60/1 85/58/1
f 74/70/1 83/61/1 84/60/1
f 73/71/1 82/62/1 83/61/1
f 72/72/1 81/63/1 82/62/1
f 71/73/1 80/64/1 81/63/1
f 70/74/1 79/65/1 80/64/1
f 69/75/1 78/66/1 79/65/1
f 68/12/1 77/14/1 78/66/1
f 67/76/1 76/67/1 10/68/1
f 66/78/1 75/69/1 76/67/1
f 65/79/1 74/70/1 75/69/1
f 64/80/1 73/71/1 74/70/1
f 63/81/1 72/72/1 73/71/1
f 62/82/1 71/73/1 72/72/1
f 61/83/1 70/74/1 71/73/1
f 60/84/1 69/75/1 70/74/1
f 59/10/1 68/12/1 69/75/1
f 12/85/1 58/87/1 67/76/1
f 57/86/1 66/78/1 67/76/1
f 56/88/1 65/79/1 66/78/1
f 55/89/1 64/80/1 65/79/1
f 54/90/1 63/81/1 64/80/1
f 53/91/1 62/82/1 63/81/1
f 52/92/1 61/83/1 62/82/1
f 51/93/1 60/84/1 61/83/1
f 50/8/1 59/10/1 60/84/1
f 49/94/1 58/87/1 12/85/1
f 48/96/1 57/86/1 58/87/1
f 47/97/1 56/88/1 57/86/1
f 46/98/1 55/89/1 56/88/1
f 45/99/1 54/90/1 55/89/1
f 44/100/1 53/91/1 54/90/1
f 43/101/1 52/92/1 53/91/1
f 42/102/1 51/93/1 52/92/1
f 41/5/1 50/8/1 51/93/1
f 23/103/1 49/94/1 13/95/1
f 24/105/1 48/96/1 49/94/1
f 25/106/1 47/97/1 48/96/1
f 26/107/1 46/98/1 47/97/1
f 27/108/1 45/99/1 46/98/1
f 28/109/1 44/100/1 45/99/1
f 29/110/1 43/101/1 44/100/1
f 30/111/1 42/102/1 43/101/1
f 31/6/1 41/5/1 42/102/1
f 121/26/1 40/113/1 3/112/1
f 120/28/1 39/114/1 40/113/1
f 119/30/1 38/115/1 39/114/1
f 118/32/1 37/116/1 38/115/1
f 117/34/1 36/117/1 37/116/1
f 116/36/1 35/118/1 36/117/1
f 115/38/1 34/119/1 35/118/1
f 114/39/1 33/120/1 34/119/1
f 113/3/1 32/2/1 33/120/1
