# Blender v2.78 (sub 6) OBJ File: ''
# www.blender.org
mtllib ../materials/sample_body.mtl
o head_Cube.007
v -0.211122 1.742326 0.209781
v -0.211122 2.161889 0.209781
v -0.211122 1.742326 -0.209781
v -0.211122 2.161889 -0.209781
v 0.208440 1.742326 0.209781
v 0.208440 2.161889 0.209781
v 0.208440 1.742326 -0.209781
v 0.208440 2.161889 -0.209781
vt 0.333333 0.333333
vt 0.666667 0.000000
vt 0.666667 0.333333
vt 0.000000 0.666667
vt 0.333333 0.333333
vt 0.333333 0.666667
vt 0.000000 0.333333
vt 0.333333 0.000000
vt 0.333333 0.333333
vt 0.666667 0.666667
vt 0.333333 0.666667
vt 0.666667 0.333333
vt 1.000000 0.000000
vt 1.000000 0.333333
vt 0.333333 1.000000
vt 0.000000 0.666667
vt 0.333333 0.666667
vt 0.333333 0.000000
vt 0.000000 0.000000
vt 0.666667 0.333333
vt 0.666667 0.000000
vt 0.000000 1.000000
vn -1.0000 0.0000 0.0000
vn 0.0000 0.0000 -1.0000
vn 1.0000 0.0000 0.0000
vn 0.0000 0.0000 1.0000
vn 0.0000 -1.0000 0.0000
vn 0.0000 1.0000 0.0000
usemtl head
s off
f 2/1/1 3/2/1 1/3/1
f 4/4/2 7/5/2 3/6/2
f 8/7/3 5/8/3 7/5/3
f 6/9/4 1/10/4 5/11/4
f 7/12/5 1/13/5 3/14/5
f 4/15/6 6/16/6 8/17/6
f 2/1/1 4/18/1 3/2/1
f 4/4/2 8/7/2 7/5/2
f 8/7/3 6/19/3 5/8/3
f 6/9/4 2/20/4 1/10/4
f 7/12/5 5/21/5 1/13/5
f 4/15/6 2/22/6 6/16/6
o leg_l_Cube.003
v 0.025590 0.088501 0.174487
v 0.025590 0.778625 0.174487
v 0.025590 0.088501 -0.174487
v 0.025590 0.778625 -0.174487
v 0.374564 0.088501 0.174487
v 0.374564 0.778625 0.174487
v 0.374564 0.088501 -0.174487
v 0.374564 0.778625 -0.174487
vt 0.666667 0.500000
vt 0.333333 0.000000
vt 0.666667 0.000000
vt 0.333333 1.000000
vt 0.000000 0.500000
vt 0.333333 0.500000
vt 1.000000 0.500000
vt 0.666667 0.000000
vt 1.000000 0.000000
vt 0.000000 0.000000
vt 0.333333 0.500000
vt 0.000000 0.500000
vt 0.666667 0.752835
vt 1.000000 0.500000
vt 1.000000 0.752835
vt 0.666667 0.752835
vt 0.333333 0.500000
vt 0.666667 0.500000
vt 0.333333 0.500000
vt 0.000000 1.000000
vt 0.666667 0.500000
vt 0.333333 0.000000
vt 0.666667 0.500000
vt 0.333333 0.752835
vn -1.0000 0.0000 0.0000
vn 0.0000 0.0000 -1.0000
vn 1.0000 0.0000 0.0000
vn 0.0000 0.0000 1.0000
vn 0.0000 -1.0000 0.0000
vn 0.0000 1.0000 0.0000
usemtl leg
s off
f 10/23/7 11/24/7 9/25/7
f 12/26/8 15/27/8 11/28/8
f 16/29/9 13/30/9 15/31/9
f 14/32/10 9/33/10 13/34/10
f 15/35/11 9/36/11 11/37/11
f 12/38/12 14/39/12 16/40/12
f 10/23/7 12/41/7 11/24/7
f 12/26/8 16/42/8 15/27/8
f 16/29/9 14/43/9 13/30/9
f 14/32/10 10/44/10 9/33/10
f 15/35/11 13/45/11 9/36/11
f 12/38/12 10/46/12 14/39/12
o foot_l_Cube.004
v 0.022214 0.004666 0.306598
v 0.022214 0.086828 0.306598
v 0.022214 0.004666 -0.171426
v 0.022214 0.086828 -0.171426
v 0.365066 0.004666 0.306598
v 0.365066 0.086828 0.306598
v 0.365066 0.004666 -0.171426
v 0.365066 0.086828 -0.171426
vt 0.903342 0.582334
vt 1.000000 0.000000
vt 1.000000 0.582334
vt 0.096658 1.000000
vt 0.193317 0.582334
vt 0.193317 1.000000
vt 0.806683 0.582334
vt 0.903342 0.000000
vt 0.903342 0.582334
vt 0.096658 0.582334
vt 0.000000 1.000000
vt 0.000000 0.582334
vt 0.403342 0.000000
vt 0.000000 0.582334
vt 0.000000 0.000000
vt 0.403342 0.582334
vt 0.806683 0.000000
vt 0.903342 0.000000
vt 0.096658 0.582334
vt 0.096658 1.000000
vt 0.403342 0.582334
vt 0.403342 0.000000
vn -1.0000 0.0000 0.0000
vn 0.0000 0.0000 -1.0000
vn 1.0000 0.0000 0.0000
vn 0.0000 0.0000 1.0000
vn 0.0000 -1.0000 0.0000
vn 0.0000 1.0000 0.0000
usemtl foot
s off
f 18/47/13 19/48/13 17/49/13
f 20/50/14 23/51/14 19/52/14
f 24/53/15 21/54/15 23/55/15
f 22/56/16 17/57/16 21/58/16
f 23/59/17 17/60/17 19/61/17
f 20/62/18 22/63/18 24/53/18
f 18/47/13 20/64/13 19/48/13
f 20/50/14 24/65/14 23/51/14
f 24/53/15 22/63/15 21/54/15
f 22/56/16 18/66/16 17/57/16
f 23/59/17 21/67/17 17/60/17
f 20/62/18 18/68/18 22/63/18
o arm_l_Cube.005
v 0.397007 1.016547 0.111015
v 0.397007 1.706671 0.111015
v 0.397007 1.016547 -0.111015
v 0.397007 1.706671 -0.111015
v 0.523912 1.016547 0.111015
v 0.523912 1.706671 0.111015
v 0.523912 1.016547 -0.111015
v 0.523912 1.706671 -0.111015
vt 0.000000 0.000000
vt 0.269201 1.000000
vt 0.000000 1.000000
vt 0.692268 0.000000
vt 0.846134 1.000000
vt 0.692267 1.000000
vt 0.538401 1.000000
vt 0.269201 0.000000
vt 0.538401 0.000000
vt 0.538401 0.000000
vt 0.692268 1.000000
vt 0.538401 1.000000
vt 1.000000 0.321725
vt 0.846134 0.643451
vt 0.846134 0.321725
vt 0.846134 0.321725
vt 1.000000 0.000000
vt 1.000000 0.321725
vt 0.269201 0.000000
vt 0.846134 0.000000
vt 0.269201 1.000000
vt 0.692267 0.000000
vt 1.000000 0.643451
vt 0.846134 0.000000
vn -1.0000 0.0000 0.0000
vn 0.0000 0.0000 -1.0000
vn 1.0000 0.0000 0.0000
vn 0.0000 0.0000 1.0000
vn 0.0000 -1.0000 0.0000
vn 0.0000 1.0000 0.0000
usemtl arm
s off
f 26/69/19 27/70/19 25/71/19
f 28/72/20 31/73/20 27/74/20
f 32/75/21 29/76/21 31/77/21
f 30/78/22 25/79/22 29/80/22
f 31/81/23 25/82/23 27/83/23
f 28/84/24 30/85/24 32/86/24
f 26/69/19 28/87/19 27/70/19
f 28/72/20 32/88/20 31/73/20
f 32/75/21 30/89/21 29/76/21
f 30/78/22 26/90/22 25/79/22
f 31/81/23 29/91/23 25/82/23
f 28/84/24 26/92/24 30/85/24
o hand_l_Cube.006
v 0.394325 0.901222 0.111015
v 0.394325 1.001307 0.111015
v 0.394325 0.901222 -0.111015
v 0.394325 1.001307 -0.111015
v 0.521231 0.901222 0.111015
v 0.521231 1.001307 0.111015
v 0.521231 0.901222 -0.111015
v 0.521231 1.001307 -0.111015
vt 0.000000 1.000000
vt 0.282810 0.500000
vt 0.282810 1.000000
vt 0.565621 0.785784
vt 0.848431 0.500000
vt 0.848431 0.785784
vt 1.000000 0.000000
vt 0.717190 0.500000
vt 0.717190 0.000000
vt 0.565620 0.500000
vt 0.282810 0.785784
vt 0.282810 0.500000
vt 0.358595 0.000000
vt 0.000000 0.500000
vt 0.000000 0.000000
vt 0.358595 0.500000
vt 0.717190 0.000000
vt 0.717190 0.500000
vt 0.000000 0.500000
vt 0.565621 0.500000
vt 1.000000 0.500000
vt 0.565621 0.785784
vt 0.358595 0.500000
vt 0.358595 0.000000
vn -1.0000 0.0000 0.0000
vn 0.0000 0.0000 -1.0000
vn 1.0000 0.0000 0.0000
vn 0.0000 0.0000 1.0000
vn 0.0000 -1.0000 0.0000
vn 0.0000 1.0000 0.0000
usemtl hand
s off
f 34/93/25 35/94/25 33/95/25
f 36/96/26 39/97/26 35/98/26
f 40/99/27 37/100/27 39/101/27
f 38/102/28 33/103/28 37/104/28
f 39/105/29 33/106/29 35/107/29
f 36/108/30 38/109/30 40/110/30
f 34/93/25 36/111/25 35/94/25
f 36/96/26 40/112/26 39/97/26
f 40/99/27 38/113/27 37/100/27
f 38/102/28 34/114/28 33/103/28
f 39/105/29 37/115/29 33/106/29
f 36/108/30 34/116/30 38/109/30
o hand_r_Cube.006
v -0.533644 0.901222 0.111015
v -0.533644 1.001307 0.111015
v -0.533644 0.901222 -0.111015
v -0.533644 1.001307 -0.111015
v -0.406739 0.901222 0.111015
v -0.406739 1.001307 0.111015
v -0.406739 0.901222 -0.111015
v -0.406739 1.001307 -0.111015
vt 0.000000 1.000000
vt 0.282810 0.500000
vt 0.282810 1.000000
vt 0.565621 0.785784
vt 0.848431 0.500000
vt 0.848431 0.785784
vt 1.000000 0.000000
vt 0.717190 0.500000
vt 0.717190 0.000000
vt 0.565620 0.500000
vt 0.282810 0.785784
vt 0.282810 0.500000
vt 0.358595 0.000000
vt 0.000000 0.500000
vt 0.000000 0.000000
vt 0.358595 0.500000
vt 0.717190 0.000000
vt 0.717190 0.500000
vt 0.000000 0.500000
vt 0.565621 0.500000
vt 1.000000 0.500000
vt 0.565621 0.785784
vt 0.358595 0.500000
vt 0.358595 0.000000
vn -1.0000 0.0000 0.0000
vn 0.0000 0.0000 -1.0000
vn 1.0000 0.0000 0.0000
vn 0.0000 0.0000 1.0000
vn 0.0000 -1.0000 0.0000
vn 0.0000 1.0000 0.0000
usemtl hand
s off
f 42/117/31 43/118/31 41/119/31
f 44/120/32 47/121/32 43/122/32
f 48/123/33 45/124/33 47/125/33
f 46/126/34 41/127/34 45/128/34
f 47/129/35 41/130/35 43/131/35
f 44/132/36 46/133/36 48/134/36
f 42/117/31 44/135/31 43/118/31
f 44/120/32 48/136/32 47/121/32
f 48/123/33 46/137/33 45/124/33
f 46/126/34 42/138/34 41/127/34
f 47/129/35 45/139/35 41/130/35
f 44/132/36 42/140/36 46/133/36
o arm_r_Cube.005
v -0.530962 1.016547 0.111015
v -0.530962 1.706671 0.111015
v -0.530962 1.016547 -0.111015
v -0.530962 1.706671 -0.111015
v -0.404057 1.016547 0.111015
v -0.404057 1.706671 0.111015
v -0.404057 1.016547 -0.111015
v -0.404057 1.706671 -0.111015
vt 0.000000 0.000000
vt 0.269201 1.000000
vt 0.000000 1.000000
vt 0.692268 0.000000
vt 0.846134 1.000000
vt 0.692267 1.000000
vt 0.538401 1.000000
vt 0.269201 0.000000
vt 0.538401 0.000000
vt 0.538401 0.000000
vt 0.692268 1.000000
vt 0.538401 1.000000
vt 1.000000 0.321725
vt 0.846134 0.643451
vt 0.846134 0.321725
vt 0.846134 0.321725
vt 1.000000 0.000000
vt 1.000000 0.321725
vt 0.269201 0.000000
vt 0.846134 0.000000
vt 0.269201 1.000000
vt 0.692267 0.000000
vt 1.000000 0.643451
vt 0.846134 0.000000
vn -1.0000 0.0000 0.0000
vn 0.0000 0.0000 -1.0000
vn 1.0000 0.0000 0.0000
vn 0.0000 0.0000 1.0000
vn 0.0000 -1.0000 0.0000
vn 0.0000 1.0000 0.0000
usemtl arm
s off
f 50/141/37 51/142/37 49/143/37
f 52/144/38 55/145/38 51/146/38
f 56/147/39 53/148/39 55/149/39
f 54/150/40 49/151/40 53/152/40
f 55/153/41 49/154/41 51/155/41
f 52/156/42 54/157/42 56/158/42
f 50/141/37 52/159/37 51/142/37
f 52/144/38 56/160/38 55/145/38
f 56/147/39 54/161/39 53/148/39
f 54/150/40 50/162/40 49/151/40
f 55/153/41 53/163/41 49/154/41
f 52/156/42 50/164/42 54/157/42
o foot_r_Cube.004
v -0.369357 0.004666 0.306598
v -0.369357 0.086828 0.306598
v -0.369357 0.004666 -0.171426
v -0.369357 0.086828 -0.171426
v -0.026505 0.004666 0.306598
v -0.026505 0.086828 0.306598
v -0.026505 0.004666 -0.171426
v -0.026505 0.086828 -0.171426
vt 0.903342 0.582334
vt 1.000000 0.000000
vt 1.000000 0.582334
vt 0.096658 1.000000
vt 0.193317 0.582334
vt 0.193317 1.000000
vt 0.806683 0.582334
vt 0.903342 0.000000
vt 0.903342 0.582334
vt 0.096658 0.582334
vt 0.000000 1.000000
vt 0.000000 0.582334
vt 0.403342 0.000000
vt 0.000000 0.582334
vt 0.000000 0.000000
vt 0.403342 0.582334
vt 0.806683 0.000000
vt 0.903342 0.000000
vt 0.096658 0.582334
vt 0.096658 1.000000
vt 0.403342 0.582334
vt 0.403342 0.000000
vn -1.0000 0.0000 0.0000
vn 0.0000 0.0000 -1.0000
vn 1.0000 0.0000 0.0000
vn 0.0000 0.0000 1.0000
vn 0.0000 -1.0000 0.0000
vn 0.0000 1.0000 0.0000
usemtl foot
s off
f 58/165/43 59/166/43 57/167/43
f 60/168/44 63/169/44 59/170/44
f 64/171/45 61/172/45 63/173/45
f 62/174/46 57/175/46 61/176/46
f 63/177/47 57/178/47 59/179/47
f 60/180/48 62/181/48 64/171/48
f 58/165/43 60/182/43 59/166/43
f 60/168/44 64/183/44 63/169/44
f 64/171/45 62/181/45 61/172/45
f 62/174/46 58/184/46 57/175/46
f 63/177/47 61/185/47 57/178/47
f 60/180/48 58/186/48 62/181/48
o leg_r_Cube.003
v -0.365981 0.088501 0.174487
v -0.365981 0.778625 0.174487
v -0.365981 0.088501 -0.174487
v -0.365981 0.778625 -0.174487
v -0.017007 0.088501 0.174487
v -0.017007 0.778625 0.174487
v -0.017007 0.088501 -0.174487
v -0.017007 0.778625 -0.174487
vt 0.666667 0.500000
vt 0.333333 0.000000
vt 0.666667 0.000000
vt 0.333333 1.000000
vt 0.000000 0.500000
vt 0.333333 0.500000
vt 1.000000 0.500000
vt 0.666667 0.000000
vt 1.000000 0.000000
vt 0.000000 0.000000
vt 0.333333 0.500000
vt 0.000000 0.500000
vt 0.666667 0.752835
vt 1.000000 0.500000
vt 1.000000 0.752835
vt 0.666667 0.752835
vt 0.333333 0.500000
vt 0.666667 0.500000
vt 0.333333 0.500000
vt 0.000000 1.000000
vt 0.666667 0.500000
vt 0.333333 0.000000
vt 0.666667 0.500000
vt 0.333333 0.752835
vn -1.0000 0.0000 0.0000
vn 0.0000 0.0000 -1.0000
vn 1.0000 0.0000 0.0000
vn 0.0000 0.0000 1.0000
vn 0.0000 -1.0000 0.0000
vn 0.0000 1.0000 0.0000
usemtl leg
s off
f 66/187/49 67/188/49 65/189/49
f 68/190/50 71/191/50 67/192/50
f 72/193/51 69/194/51 71/195/51
f 70/196/52 65/197/52 69/198/52
f 71/199/53 65/200/53 67/201/53
f 68/202/54 70/203/54 72/204/54
f 66/187/49 68/205/49 67/188/49
f 68/190/50 72/206/50 71/191/50
f 72/193/51 70/207/51 69/194/51
f 70/196/52 66/208/52 65/197/52
f 71/199/53 69/209/53 65/200/53
f 68/202/54 66/210/54 70/203/54
o torso_Cube.002
v -0.371463 0.807415 0.371463
v -0.371463 1.715804 0.371463
v -0.371463 0.807415 -0.371463
v -0.371463 1.715804 -0.371463
v 0.371463 0.807415 0.371463
v 0.371463 1.715804 0.371463
v 0.371463 0.807415 -0.371463
v 0.371463 1.715804 -0.371463
vt 0.000000 0.500000
vt 0.333333 1.000000
vt 0.000000 1.000000
vt 0.333333 0.000000
vt 0.666667 0.500000
vt 0.333333 0.500000
vt 0.000000 0.000000
vt 0.333333 0.500000
vt 0.000000 0.500000
vt 1.000000 0.408925
vt 0.666667 0.000000
vt 1.000000 0.000000
vt 0.333333 0.500000
vt 0.666667 0.000000
vt 0.333333 0.000000
vt 0.666667 0.408925
vt 0.333333 0.500000
vt 0.666667 1.000000
vt 0.333333 1.000000
vt 0.666667 0.817851
vt 1.000000 0.408925
vt 1.000000 0.817851
vt 0.666667 0.500000
vt 0.666667 0.408925
vn -1.0000 0.0000 0.0000
vn 0.0000 0.0000 -1.0000
vn 1.0000 0.0000 0.0000
vn 0.0000 1.0000 0.0000
vn 0.0000 0.0000 1.0000
vn 0.0000 -1.0000 0.0000
usemtl torso
s off
f 74/211/55 75/212/55 73/213/55
f 76/214/56 79/215/56 75/216/56
f 80/217/57 77/218/57 79/219/57
f 76/220/58 78/221/58 80/222/58
f 74/211/55 76/223/55 75/212/55
f 76/214/56 80/224/56 79/215/56
f 80/217/57 78/225/57 77/218/57
f 76/220/58 74/226/58 78/221/58
usemtl torso__front
f 78/227/59 73/228/59 77/229/59
f 79/230/60 73/231/60 75/232/60
f 78/227/59 74/233/59 73/228/59
f 79/230/60 77/234/60 73/231/60
